<?xml version="1.0" encoding="utf-8"?>
<svg xmlns="http://www.w3.org/2000/svg" xmlns:xlink="http://www.w3.org/1999/xlink" style="margin: auto; background: none; display: block; z-index: 1; position: relative; shape-rendering: auto;" width="1920" height="1305" preserveAspectRatio="xMidYMid" viewBox="0 0 1920 1305">
<g transform=""><g transform="translate(2249.532980197127,-347.76431156165756) scale(100)" opacity="0.36">
  <path d="M14.198400000000003 0 C14.198400000000003 3.7536000000000005 17.847694086431105 5.970087044354729 15.970894086431105 9.220799999999999 S10.349912955645273 10.419375093092974 7.099200000000003 12.296175093092975 S3.753600000000002 18.4416 1.1292223205577915e-15 18.4416 S-3.8484870443547283 14.172975093092976 -7.099199999999998 12.296175093092977 S-14.0940940864311 12.471512955645274 -15.970894086431102 9.220800000000006 S-14.198400000000003 3.7536000000000023 -14.198400000000003 1.7388025113013784e-15 S-17.847694086431105 -5.970087044354726 -15.970894086431107 -9.220799999999995 S-10.349912955645276 -10.41937509309297 -7.099200000000008 -12.296175093092973 S-3.753600000000004 -18.4416 -3.387666961673374e-15 -18.4416 S3.8484870443547208 -14.17297509309298 7.099199999999992 -12.296175093092982 S14.094094086431099 -12.471512955645277 15.9708940864311 -9.22080000000001 S14.198400000000001 -3.753600000000004 14.198400000000003 -3.477605022602757e-15" fill="#0066ff" stroke-width="0" transform="rotate(36.9084)">
    <animateTransform attributeName="transform" type="rotate" dur="20s" repeatCount="indefinite" values="0;60"></animateTransform>
  </path>
</g><g transform="translate(2507.439576236552,-547.8171738739891) scale(100)" opacity="0.36">
  <path d="M17.03808 0 C17.03808 4.50432 21.417232903717323 7.164104453225675 19.165072903717324 11.064959999999997 S12.419895546774324 12.503250111711568 8.519040000000002 14.755410111711567 S4.504320000000002 22.12992 1.3550667846693497e-15 22.12992 S-4.618184453225674 17.00757011171157 -8.519039999999997 14.75541011171157 S-16.91291290371732 14.965815546774328 -19.16507290371732 11.064960000000006 S-17.03808 4.504320000000002 -17.03808 2.0865630135616537e-15 S-21.417232903717327 -7.16410445322567 -19.165072903717327 -11.064959999999994 S-12.41989554677433 -12.503250111711564 -8.519040000000007 -14.755410111711566 S-4.504320000000004 -22.12992 -4.065200354008049e-15 -22.12992 S4.618184453225665 -17.007570111711573 8.51903999999999 -14.755410111711576 S16.912912903717313 -14.965815546774332 19.165072903717316 -11.06496000000001 S17.03808 -4.504320000000004 17.03808 -4.1731260271233074e-15" fill="#00ffff" stroke-width="0" transform="rotate(13.8169)">
    <animateTransform attributeName="transform" type="rotate" dur="10s" repeatCount="indefinite" values="0;60"></animateTransform>
  </path>
</g></g>
</svg>