<?xml version="1.0" encoding="utf-8"?><svg xmlns="http://www.w3.org/2000/svg" xmlns:xlink="http://www.w3.org/1999/xlink" width="1967" height="471" preserveAspectRatio="xMidYMid" viewBox="0 0 1967 471" style="z-index:1;margin-right:-2px;display:block;background-repeat-y:initial;background-repeat-x:initial;animation-play-state:paused" ><g transform="" style="animation-play-state:paused" ><linearGradient id="lg-0.4916011206933406" x1="0" x2="1" y1="0" y2="0" style="animation-play-state:paused" ><stop stop-color="#66b0ff" offset="0" style="animation-play-state:paused" ></stop>

  
<stop stop-color="#006aff" offset="1" style="animation-play-state:paused" ></stop></linearGradient>
<path fill="url(#lg-0.4916011206933406)" opacity="0.4" d="M 0 0 L 0 404.767 Q 196.7 420.752 393.4 397.911 T 786.8 369.747 T 1180.2 261.224 T 1573.6 209.654 T 1967 168.725 L 1967 0 Z" style="opacity:0.4;animation-play-state:paused" ></path>
<path fill="url(#lg-0.4916011206933406)" opacity="0.4" d="M 0 0 L 0 413.469 Q 196.7 379.578 393.4 351.103 T 786.8 338.58 T 1180.2 266.367 T 1573.6 254.375 T 1967 220.403 L 1967 0 Z" style="opacity:0.4;animation-play-state:paused" ></path>
<path fill="url(#lg-0.4916011206933406)" opacity="0.4" d="M 0 0 L 0 399.755 Q 196.7 399.753 393.4 371.166 T 786.8 346.094 T 1180.2 265.928 T 1573.6 226.029 T 1967 190.726 L 1967 0 Z" style="opacity:0.4;animation-play-state:paused" ></path>
<path fill="url(#lg-0.4916011206933406)" opacity="0.4" d="M 0 0 L 0 441.56 Q 196.7 412.586 393.4 376.293 T 786.8 305.935 T 1180.2 272.943 T 1573.6 233.343 T 1967 165.721 L 1967 0 Z" style="opacity:0.4;animation-play-state:paused" ></path>
<path fill="url(#lg-0.4916011206933406)" opacity="0.4" d="M 0 0 L 0 456.209 Q 196.7 372.895 393.4 356.496 T 786.8 323.947 T 1180.2 293.038 T 1573.6 244.865 T 1967 218.143 L 1967 0 Z" style="opacity:0.4;animation-play-state:paused" ></path></g></svg>