<?xml version="1.0" encoding="utf-8"?><svg xmlns="http://www.w3.org/2000/svg" xmlns:xlink="http://www.w3.org/1999/xlink" width="2081" height="993" preserveAspectRatio="xMidYMid" viewBox="0 0 2081 993" style="z-index:1;margin-right:-2px;display:block;background-repeat-y:initial;background-repeat-x:initial;animation-play-state:paused" ><g transform="" style="animation-play-state:paused" ><linearGradient id="lg-0.2501734716368329" x1="0" x2="1" y1="0" y2="0" style="animation-play-state:paused" ><stop stop-color="#033970" offset="0" style="animation-play-state:paused" ></stop>

  
<stop stop-color="#86ffff" offset="1" style="animation-play-state:paused" ></stop></linearGradient>
<path fill="url(#lg-0.2501734716368329)" opacity="0.4" d="M 0 0 L 0 819.94 Q 208.1 769.062 416.2 723.217 T 832.4 649.786 T 1248.6 588.916 T 1664.8 500.587 T 2081 470.344 L 2081 0 Z" style="opacity:0.4;animation-play-state:paused" ></path>
<path fill="url(#lg-0.2501734716368329)" opacity="0.4" d="M 0 0 L 0 933.407 Q 208.1 780.771 416.2 761 T 832.4 694.449 T 1248.6 591.415 T 1664.8 536.578 T 2081 353.982 L 2081 0 Z" style="opacity:0.4;animation-play-state:paused" ></path>
<path fill="url(#lg-0.2501734716368329)" opacity="0.4" d="M 0 0 L 0 841.86 Q 208.1 871.792 416.2 838.488 T 832.4 703.066 T 1248.6 577.396 T 1664.8 445.401 T 2081 470.996 L 2081 0 Z" style="opacity:0.4;animation-play-state:paused" ></path>
<path fill="url(#lg-0.2501734716368329)" opacity="0.4" d="M 0 0 L 0 840.413 Q 208.1 791.779 416.2 769.113 T 832.4 694.103 T 1248.6 664.813 T 1664.8 521.691 T 2081 462.999 L 2081 0 Z" style="opacity:0.4;animation-play-state:paused" ></path>
<path fill="url(#lg-0.2501734716368329)" opacity="0.4" d="M 0 0 L 0 928.24 Q 208.1 776.508 416.2 740.006 T 832.4 765.495 T 1248.6 669.074 T 1664.8 578.877 T 2081 483.203 L 2081 0 Z" style="opacity:0.4;animation-play-state:paused" ></path></g></svg>