<?xml version="1.0" encoding="utf-8"?><svg xmlns="http://www.w3.org/2000/svg" xmlns:xlink="http://www.w3.org/1999/xlink" width="2081" height="566" preserveAspectRatio="xMidYMid" viewBox="0 0 2081 566" style="z-index:1;margin-right:-2px;display:block;background-repeat-y:initial;background-repeat-x:initial;animation-play-state:paused" ><g transform="" style="animation-play-state:paused" ><linearGradient id="lg-0.15656127736579517" x1="0" x2="1" y1="0" y2="0" style="animation-play-state:paused" ><stop stop-color="#033970" offset="0" style="animation-play-state:paused" ></stop>

  
<stop stop-color="#86ffff" offset="1" style="animation-play-state:paused" ></stop></linearGradient>
<path fill="url(#lg-0.15656127736579517)" opacity="0.4" d="M 0 0 L 0 544.898 Q 208.1 473.125 416.2 443.925 T 832.4 376.374 T 1248.6 331.551 T 1664.8 270.307 T 2081 254.409 L 2081 0 Z" style="opacity:0.4;animation-play-state:paused" ></path>
<path fill="url(#lg-0.15656127736579517)" opacity="0.4" d="M 0 0 L 0 514.861 Q 208.1 476.054 416.2 431.262 T 832.4 371.601 T 1248.6 360.188 T 1664.8 309.53 T 2081 242.971 L 2081 0 Z" style="opacity:0.4;animation-play-state:paused" ></path>
<path fill="url(#lg-0.15656127736579517)" opacity="0.4" d="M 0 0 L 0 494.884 Q 208.1 471.353 416.2 433.044 T 832.4 398.929 T 1248.6 324.607 T 1664.8 292.626 T 2081 248.907 L 2081 0 Z" style="opacity:0.4;animation-play-state:paused" ></path>
<path fill="url(#lg-0.15656127736579517)" opacity="0.4" d="M 0 0 L 0 477.271 Q 208.1 546.831 416.2 503.319 T 832.4 399.805 T 1248.6 319.837 T 1664.8 279.695 T 2081 268.769 L 2081 0 Z" style="opacity:0.4;animation-play-state:paused" ></path>
<path fill="url(#lg-0.15656127736579517)" opacity="0.4" d="M 0 0 L 0 533.428 Q 208.1 465.374 416.2 428.614 T 832.4 400.914 T 1248.6 358.854 T 1664.8 306.264 T 2081 281.419 L 2081 0 Z" style="opacity:0.4;animation-play-state:paused" ></path></g></svg>